<svg style="max-height: 500px" version="1.0" xmlns="http://www.w3.org/2000/svg" viewBox="0 155.364 429.35393974630017 207.501" preserveAspectRatio="xMidYMid meet" width="429.35393974630017" height="207.501">
 <g fill="#000000">
  <path d="M335 361.3 c0.1 -1 0.9 -4.3 2 -7.3 5 -14.2 0 -30.3 -13.5 -43.7 -11.5 -11.2 -26.2 -17.3 -42.2 -17.3 -9.3 0 -20.2 2.8 -28.8 7.3 -6.6 3.5 -17.3 13 -20.5 18.2 -1.9 3 -1.9 3.5 -0.5 7.5 0.8 2.3 1.5 6.2 1.5 8.7 l0 4.4 -3.6 -0.3 c-3.3 -0.3 -3.7 -0.7 -5.3 -5.4 -5.8 -17.1 -23.5 -31.3 -47.1 -37.6 -11.7 -3.1 -30.9 -3.1 -42.5 0 -23.5 6.3 -42.5 21.9 -47.6 39 -1.2 4 -1.4 4.2 -5.2 4.2 l-4 0 0.6 -5.1 c0.4 -2.9 2 -8 3.6 -11.5 l3 -6.4 -4 -5.9 c-10.7 -16.1 -30.2 -25.6 -46.9 -23 -8.5 1.3 -19.8 6.7 -25.8 12.3 -6.8 6.4 -8.4 6.2 -8 -1.1 0.3 -5.6 0.4 -5.8 5.3 -9.5 8.5 -6.4 17.1 -9.1 31.1 -9.6 7.2 -0.2 14.4 0.1 17.8 0.8 12.4 2.6 26.8 12.4 33.7 23 l3.1 4.9 6.5 -5 c10.4 -7.9 21.7 -12.9 36.8 -16 9.3 -2 34.3 -1.7 44.5 0.5 16.3 3.4 31.6 11.2 40.9 20.9 l4.4 4.5 3.8 -4.8 c4.7 -6 12.3 -11.8 20.6 -16 5.7 -2.8 10.7 -4.1 24.2 -6.7 l4.3 -0.8 -5.1 -7.7 c-6 -8.9 -12.7 -14.7 -22.6 -19.4 -7.3 -3.5 -18.3 -6.4 -24.5 -6.4 -9.7 0 -24.7 5.2 -33.8 11.7 -3.3 2.3 -5.8 3.3 -8.4 3.3 -3.6 0 -3.8 -0.2 -3.8 -3.3 0 -2.8 0.7 -3.9 4.5 -6.7 l4.4 -3.3 -2 -2.5 c-7.8 -9.9 -24.6 -18.2 -36.9 -18.2 -3.7 0 -15.3 2.4 -17.2 3.6 -0.4 0.3 0.6 2.4 2.3 4.8 1.9 2.9 2.9 5.7 2.9 8 0 3.5 -0.1 3.6 -3.7 3.6 -3.4 0 -4.1 -0.5 -6.2 -4.2 -5.6 -9.9 -17.5 -19.3 -28.8 -22.8 -7.4 -2.3 -18.5 -2.6 -24.8 -0.6 -4.5 1.4 -4.5 1.6 -1.6 9.6 1.1 3 2 7.6 2.1 10.3 0 4.7 0 4.7 -3.4 4.7 -3.3 0 -3.4 -0.2 -5.6 -7.1 -6 -18.6 -22.5 -32.9 -41.6 -36.1 -6 -1 -8.1 -0.9 -14 0.5 -9.5 2.3 -9.4 2.4 -9.4 -2.7 0 -4.1 0.2 -4.4 3.1 -5 1.7 -0.3 8.7 -0.6 15.6 -0.6 9.9 0 13.6 0.4 18.6 2.1 8 2.7 15 6.9 21.2 12.9 l5 4.9 5.5 -1.5 c7.3 -1.9 24.6 -1.8 32.3 0.2 6.8 1.8 13.3 4.8 19.2 9.1 l4 3 5.5 -2.1 c7.7 -2.8 28.9 -3 37 -0.2 9.7 3.3 17.2 7.9 24.1 14.8 l6.7 6.8 4.3 -1.5 c6.8 -2.4 21.7 -3.6 31.8 -2.6 16.4 1.7 31.9 9.3 41.2 20 3.9 4.5 10.9 17.1 10.9 19.7 0 0.8 1.8 1.5 4.8 1.9 20.7 2.8 36.9 11.9 46.5 26.2 6.7 9.9 8.9 17.4 9 30.3 0 6 -0.5 12.8 -1.3 15.8 l-1.4 5.2 -4.3 0 c-3.4 0 -4.3 -0.3 -4.3 -1.7z"/>
 </g>
 <g fill="#ffffff">
  <path d="M0 332.1 l0 -30.8 5 -4.7 c11.3 -10.6 29 -15.4 44.5 -12.3 4.4 0.9 10.9 3.1 14.5 4.8 8 3.9 18.3 14 22.5 22 l2.9 5.7 -3.1 5.8 c-3.3 6.3 -5.6 13.4 -4.4 13.4 0.4 0 1.3 -1.9 2 -4.2 3.8 -12.7 15.1 -24.8 30.3 -32.2 14.7 -7.3 22.3 -8.9 41.3 -9 18.9 -0.1 27.3 1.7 42 8.9 14.4 6.9 26.5 19.6 29.7 30.9 0.6 2.3 1.5 4.5 2 5.1 1.6 1.8 0.7 -3.1 -1.6 -8.7 l-2.3 -5.7 3.2 -4.8 c11.2 -16.7 30.7 -26.5 52.9 -26.5 18.5 0 33 5.6 45.1 17.5 11.6 11.5 16 22.6 15.3 38.1 -0.3 5.5 -1.2 10.8 -2.3 13.4 l-1.7 4.2 -168.9 0 -168.9 0 0 -30.9z"/>
  <path d="M341.2 357.3 c2.7 -8.1 2.6 -20.9 -0.2 -29.4 -7 -21.2 -26.8 -35.8 -53.2 -39.4 -3 -0.4 -4.8 -1.1 -4.8 -1.9 0 -2.6 -7 -15.2 -10.9 -19.7 -5.6 -6.4 -16.2 -13.5 -25.1 -16.5 -13.8 -4.8 -31.6 -4.8 -44.6 0.1 l-6.8 2.6 -2.5 -3.3 c-9.6 -12.8 -24.4 -21 -40.3 -22.3 -7.7 -0.7 -16.4 0.7 -24.9 4 l-4.5 1.8 -4.9 -3.7 c-11.3 -8.7 -22.2 -12.1 -36.5 -11.3 -6.2 0.3 -11.3 1.2 -14.8 2.5 l-5.3 2 -5.1 -5.4 c-6.1 -6.5 -13.9 -11.4 -22.8 -14.4 -5.6 -1.9 -8 -2.1 -18 -1.7 -6.3 0.2 -12.5 0.8 -13.7 1.2 l-2.3 0.7 0 -15.9 0 -16 3.8 -2.6 c7.6 -5.2 22.1 -9.7 31.7 -9.7 6.1 0 18.8 2.7 24.6 5.2 4.4 1.8 4.9 1.9 7.9 0.3 4.7 -2.4 17.7 -5.5 23.3 -5.5 10.3 0 26.6 6.2 34 12.9 l3.7 3.4 6.8 -3.1 c21.1 -9.6 40.5 -5.9 57.5 11 7.7 7.7 9.4 8.7 11.3 6.8 1.8 -1.8 12.5 -4.9 20.7 -6.1 10.8 -1.5 22.2 0.4 33.1 5.5 10 4.6 20.5 14.8 25.4 24.8 l3.2 6.7 12.8 -0.6 c15.6 -0.6 23.9 0.9 35.9 6.7 11 5.4 22.1 15.6 26.3 24.5 3.3 7 5.5 18.7 4.7 25.6 -0.7 5.7 0.3 6.9 6.3 6.9 12.7 0.1 28.8 7 38.6 16.6 10.5 10.3 16.4 25.9 15.1 39.8 -0.5 5.7 -3.5 16.3 -5.9 20.9 -0.8 1.6 -3.8 1.7 -41.2 1.7 l-40.3 0 1.9 -5.7z"/>
  <path d="M218.5 313.3 c-21.9 -24.3 -64.7 -32 -99.7 -17.9 -8.4 3.4 -16.1 8.3 -22.6 14.4 -3.1 2.8 -5.8 5.2 -5.9 5.2 -0.2 0 -1.5 -2.4 -2.9 -5.2 -6 -11.9 -22.3 -24 -36.1 -26.8 -14.1 -3 -32.1 0.7 -42.7 8.8 -2.7 2 -5.7 4.3 -6.7 5.1 -1.8 1.3 -1.9 0 -1.9 -45.2 l0 -46.5 3.3 -1.2 c1.7 -0.6 6.8 -1.4 11.2 -1.7 24 -1.5 46.1 13.5 53.5 36.6 1.2 3.9 2.5 6.9 2.8 6.7 0.9 -0.9 -1.8 -9.7 -4.9 -15.7 l-2.9 -5.9 2.4 -0.9 c10.5 -4.1 25.1 -4.5 35.6 -1.2 11.3 3.5 22.1 11.8 28.1 21.4 4.1 6.5 3.8 6.1 4.5 5.5 0.6 -0.7 -1.6 -4.4 -6 -10.1 -3.3 -4.4 -3.2 -4.7 4.9 -7.3 7.7 -2.5 21.7 -2.9 29.5 -0.9 11.3 2.9 23.2 10.9 29.7 20.1 l2.2 3 -6 4.4 c-3.2 2.4 -5.7 4.5 -5.4 4.8 0.3 0.3 2.5 -0.9 5 -2.7 22.7 -16.3 54.3 -15.9 76.3 1.1 6.2 4.8 13.6 14.7 16.3 21.7 l1.8 4.9 -5.7 0.7 c-22.9 2.7 -37.9 11.5 -50.2 29.3 -1.5 2.1 -1.6 2 -7.5 -4.5z"/>
 </g>
</svg>